<?xml version="1.0" standalone="no"?><!DOCTYPE svg PUBLIC "-//W3C//DTD SVG 1.1//EN" "http://www.w3.org/Graphics/SVG/1.1/DTD/svg11.dtd"><svg t="1723767887738" class="icon" viewBox="0 0 1024 1024" version="1.1" xmlns="http://www.w3.org/2000/svg" p-id="1385" xmlns:xlink="http://www.w3.org/1999/xlink" width="200" height="200"><path d="M1024 883.996444c0 45.852444-35.726222 83.000889-79.815111 83.000889H79.815111c-44.088889 0-79.815111-37.148444-79.815111-83.000889V139.832889c0-45.909333 35.726222-83.057778 79.815111-83.057778h206.108445l177.379555 147.626667h560.696889v679.594666zM950.840889 278.186667H438.897778L268.174222 130.616889s-193.934222-4.039111-195.015111 0c0 0-2.389333 771.811556 0 762.595555h877.681778c1.479111-4.608 0-615.025778 0-615.025777z m-231.594667 319.829333H304.810667a36.807111 36.807111 0 0 1-36.636445-36.920889c0-20.366222 16.440889-36.920889 36.636445-36.920889h414.435555c20.195556 0 36.579556 16.554667 36.579556 36.920889a36.750222 36.750222 0 0 1-36.579556 36.920889z" fill="#2c2c2c" p-id="1386"></path></svg>