<?xml version="1.0" standalone="no"?><!DOCTYPE svg PUBLIC "-//W3C//DTD SVG 1.1//EN" "http://www.w3.org/Graphics/SVG/1.1/DTD/svg11.dtd"><svg t="1723767915770" class="icon" viewBox="0 0 1024 1024" version="1.1" xmlns="http://www.w3.org/2000/svg" p-id="1582" xmlns:xlink="http://www.w3.org/1999/xlink" width="200" height="200"><path d="M790.698667 1023.886222H232.732444c-65.763556 0-119.068444-57.287111-119.068444-127.886222V128.568889c0-70.656 53.304889-127.943111 119.068444-127.943111h379.335112c39.879111-0.682667 72.476444 0 76.344888 0l221.013334 255.829333c0 46.933333 0.398222 53.930667 0.398222 63.943111V896c0 70.599111-53.361778 127.886222-119.125333 127.886222z m-124.416-953.457778v116.280889c0 35.271111 19.569778 69.006222 64.910222 69.745778h89.770667l-154.680889-186.026667z m176.810666 255.772445h-110.535111c-65.763556 0-132.608-68.892444-132.608-139.491556 0 0-0.512-39.708444 0-116.280889H224.199111c-32.938667 0-44.202667 34.417778-44.202667 69.745778v744.220445c0 35.271111 11.264 69.745778 44.202667 69.745777h574.691556c32.881778 0 44.202667-34.474667 44.202666-69.745777V326.200889z m-143.644444 441.912889H323.640889c-18.318222 0-33.109333-15.644444-33.109333-34.929778 0-19.228444 14.791111-34.872889 33.109333-34.872889h375.808c18.261333 0 33.109333 15.644444 33.109333 34.872889 0 19.285333-14.848 34.929778-33.109333 34.929778z m0-186.083556H323.640889c-18.318222 0-33.109333-15.587556-33.109333-34.872889 0-19.285333 14.791111-34.872889 33.109333-34.872889h375.808c18.261333 0 33.109333 15.587556 33.109333 34.872889 0 19.285333-14.848 34.872889-33.109333 34.872889z" fill="#2c2c2c" p-id="1583"></path></svg>